<?xml version="1.0" standalone="no"?>
<!DOCTYPE svg PUBLIC "-//W3C//DTD SVG 20010904//EN"
 "http://www.w3.org/TR/2001/REC-SVG-20010904/DTD/svg10.dtd">
<svg version="1.0" xmlns="http://www.w3.org/2000/svg"
 width="609.000000pt" height="609.000000pt" viewBox="0 0 609.000000 609.000000"
 preserveAspectRatio="xMidYMid meet">
<metadata>
Created by potrace 1.14, written by Peter Selinger 2001-2017
</metadata>
<g transform="translate(0.000000,609.000000) scale(0.100000,-0.100000)"
fill="#000000" stroke="none">
<path d="M4049 5338 c-7 -23 -5 -36 4 -32 7 2 17 -7 24 -21 6 -14 7 -23 3 -20
-5 3 -12 -1 -17 -9 -7 -12 -10 -12 -21 0 -7 8 -8 14 -2 14 5 0 10 5 10 11 0 5
-4 7 -10 4 -5 -3 -10 1 -10 9 0 9 -5 16 -10 16 -7 0 -7 -6 -2 -17 5 -10 6 -27
1 -38 -5 -14 -8 -16 -9 -5 -2 8 -2 19 -1 24 1 5 -5 6 -13 3 -9 -4 -18 -1 -22
5 -4 7 -3 8 4 4 7 -4 12 -2 12 3 0 17 -18 13 -29 -6 -10 -17 -10 -17 -11 0 0
17 -1 17 -16 3 -20 -21 -25 -20 -17 2 6 15 5 15 -10 3 -9 -7 -22 -11 -29 -8
-7 2 -17 5 -23 6 -5 2 -17 9 -26 17 -12 10 -18 11 -27 2 -9 -9 -12 -9 -12 0 0
7 -5 12 -11 12 -5 0 -7 -6 -3 -12 5 -8 0 -7 -11 2 -11 9 -16 10 -11 3 4 -7 2
-13 -3 -13 -6 0 -11 5 -11 10 0 6 -5 10 -11 10 -5 0 -7 -4 -4 -10 3 -5 1 -10
-4 -10 -6 0 -11 5 -11 12 0 6 -6 4 -13 -7 -8 -10 -19 -15 -25 -11 -6 3 -14 1
-18 -5 -5 -8 -3 -9 6 -4 9 6 11 4 5 -5 -6 -10 -11 -10 -20 4 -11 15 -13 15
-19 1 -3 -9 -10 -14 -15 -11 -4 3 -16 -3 -26 -14 -16 -18 -59 -25 -48 -7 2 4
-10 2 -29 -5 -40 -16 -91 -15 -96 1 -2 6 -8 11 -14 11 -6 0 -8 -7 -4 -15 4
-12 2 -13 -14 -3 -10 7 -16 16 -14 20 3 4 0 8 -5 8 -16 0 -14 -10 7 -34 15
-19 15 -19 0 -7 -9 7 -23 9 -29 5 -7 -4 -9 -3 -6 2 3 5 -2 10 -12 10 -13 0
-16 -6 -13 -25 3 -16 1 -22 -7 -17 -6 4 -11 1 -11 -8 0 -9 -5 -16 -11 -16 -6
0 -9 6 -6 13 3 7 -3 13 -13 13 -11 0 -16 -5 -12 -15 3 -9 1 -12 -6 -7 -6 3
-16 -2 -22 -11 -10 -16 -11 -16 -6 -1 4 13 1 15 -12 11 -9 -4 -20 -11 -24 -17
-4 -6 -8 0 -8 13 0 20 -3 22 -12 13 -7 -7 -22 -12 -35 -12 -21 0 -28 -10 -24
-33 1 -5 -3 -6 -8 -3 -5 4 -12 2 -16 -4 -4 -6 -11 -8 -16 -5 -5 4 -9 -1 -9
-10 0 -9 4 -13 10 -10 6 4 7 -1 3 -11 -4 -11 -8 -13 -11 -6 -5 17 -29 15 -36
-4 -6 -14 -4 -15 11 -4 10 7 5 1 -10 -14 -16 -14 -33 -23 -39 -20 -7 4 -8 2
-4 -5 4 -6 0 -14 -8 -17 -9 -3 -13 -10 -10 -15 3 -5 1 -9 -5 -9 -5 0 -13 -9
-16 -20 -4 -11 -11 -18 -16 -15 -5 4 -9 -1 -9 -9 0 -18 -50 -55 -67 -49 -7 3
-13 0 -13 -7 0 -6 -4 -9 -9 -5 -10 5 -71 -48 -71 -61 0 -4 -8 -13 -17 -21 -11
-9 -12 -12 -3 -7 8 4 5 -3 -8 -15 -12 -12 -26 -20 -31 -17 -5 3 -11 -3 -14
-14 -3 -11 -1 -23 4 -26 6 -3 5 -11 -2 -20 -6 -8 -8 -14 -4 -14 4 0 2 -7 -5
-15 -7 -8 -9 -15 -6 -15 4 0 0 -7 -9 -16 -9 -9 -14 -23 -11 -30 3 -8 -1 -14
-9 -14 -7 0 -17 -5 -21 -12 -4 -7 -3 -8 4 -4 8 5 10 2 6 -8 -3 -9 -9 -14 -13
-12 -4 3 -7 -4 -7 -14 0 -11 5 -16 14 -12 12 4 12 1 0 -19 -7 -13 -17 -27 -23
-31 -5 -4 -6 -8 -2 -8 5 0 -3 -14 -17 -30 -14 -17 -23 -36 -20 -44 3 -7 -2
-19 -11 -26 -17 -14 -20 -67 -5 -90 6 -10 4 -20 -6 -31 -15 -17 -19 -39 -11
-74 2 -11 -1 -23 -7 -27 -8 -6 -7 -10 2 -16 7 -5 14 -19 15 -30 1 -12 5 -22 9
-22 4 0 8 -9 8 -20 0 -12 7 -34 15 -49 8 -16 12 -31 9 -34 -3 -3 3 -8 14 -11
21 -7 31 -35 37 -100 2 -22 10 -61 16 -87 7 -27 11 -51 8 -53 -2 -2 -20 -7
-40 -10 -20 -3 -42 -8 -50 -11 -43 -16 -82 -164 -74 -278 10 -153 22 -190 82
-265 87 -107 98 -116 146 -115 44 2 45 1 53 -35 10 -48 10 -50 19 -162 11
-130 11 -192 3 -279 -9 -97 -20 -109 -90 -94 -29 6 -82 10 -118 9 l-64 -1 -26
-75 c-14 -41 -33 -89 -43 -106 -9 -17 -14 -34 -11 -37 11 -10 -38 -107 -55
-107 -9 0 -54 -12 -101 -26 -57 -18 -115 -27 -175 -30 -76 -2 -129 -11 -235
-39 -46 -13 -100 -24 -135 -30 -22 -3 -58 -11 -80 -17 -22 -6 -45 -12 -52 -14
-6 -1 -27 -7 -45 -12 -18 -6 -46 -13 -63 -15 -16 -3 -50 -10 -75 -17 -72 -19
-80 -21 -180 -25 -86 -3 -103 -8 -172 -42 l-77 -38 -1 -942 0 -943 2050 0
2050 0 0 414 c0 467 2 456 -77 559 -26 34 -50 64 -53 67 -4 3 -43 59 -88 126
-72 107 -161 207 -232 262 -36 28 -389 221 -417 228 -32 8 -29 25 16 102 51
87 80 199 85 322 1 18 -40 39 -94 46 -23 3 -76 17 -117 30 -42 13 -82 24 -89
24 -8 0 -14 2 -14 5 0 13 91 319 100 335 5 9 32 32 60 50 27 18 63 48 78 69
30 37 102 169 102 184 0 5 7 23 15 40 8 18 18 50 23 71 5 27 13 40 26 42 27 4
40 20 42 53 1 16 10 43 18 60 9 17 14 31 10 31 -4 0 -2 6 4 13 18 22 28 116
36 367 4 104 1 120 -20 120 -8 0 -14 6 -15 13 0 6 -3 80 -5 162 -3 83 -6 168
-7 190 -2 22 1 48 5 58 6 11 5 17 -2 17 -7 0 -8 7 -3 18 11 22 4 96 -11 121
-5 8 -4 16 4 21 9 5 9 9 1 14 -6 4 -9 12 -6 17 4 5 1 9 -6 9 -7 0 -9 3 -6 7 4
3 0 15 -9 25 -14 15 -15 20 -3 35 9 11 10 14 2 9 -8 -4 -13 -1 -13 8 0 9 -5
16 -12 16 -6 0 -8 3 -5 7 4 3 2 12 -4 20 -9 10 -7 13 6 13 12 0 15 5 11 16 -4
11 -2 15 7 11 7 -3 13 3 14 12 1 24 10 105 13 116 1 6 1 12 0 15 -2 5 -8 58
-13 118 -1 12 -6 22 -11 22 -5 0 -3 6 3 14 10 11 7 17 -11 30 -15 11 -17 16
-8 16 11 0 12 2 3 8 -7 5 -14 20 -15 34 -1 15 -6 24 -12 21 -5 -3 -7 5 -4 21
3 14 1 26 -4 26 -6 0 -8 7 -5 15 4 8 2 17 -3 20 -6 4 -10 13 -10 21 0 18 -25
46 -34 37 -3 -4 -6 1 -6 11 0 9 -4 14 -10 11 -5 -3 -10 1 -10 9 0 9 -9 25 -20
36 -11 11 -15 20 -8 20 6 0 3 6 -7 14 -11 8 -16 20 -12 29 4 10 2 16 -6 14 -7
-1 -11 6 -9 17 2 11 -1 15 -7 11 -6 -3 -11 -1 -11 4 0 6 5 11 10 11 6 0 10 5
10 11 0 5 -4 8 -9 5 -5 -3 -11 1 -15 9 -3 8 0 15 7 15 6 0 1 7 -11 16 -12 8
-26 13 -30 10 -4 -2 -8 4 -8 14 0 18 2 18 23 -2 13 -12 23 -18 23 -13 0 13
-42 45 -51 39 -5 -3 -9 0 -9 5 0 6 -10 10 -21 8 -12 -1 -24 5 -26 13 -4 12 -3
12 5 1 7 -9 12 -10 16 -2 8 12 6 12 -36 15 -14 0 -30 5 -35 10 -4 5 -3 6 4 2
6 -3 14 -2 18 4 4 6 11 7 17 4 7 -4 8 -2 4 5 -4 6 -13 8 -19 4 -19 -12 -49
-14 -42 -3 3 5 4 10 1 10 -3 0 -6 -1 -7 -2z m115 -108 c-6 -6 -10 -3 -10 10 0
13 4 16 10 10 7 -7 7 -13 0 -20z"/>
<path d="M3555 5260 c-3 -5 -2 -10 4 -10 5 0 13 5 16 10 3 6 2 10 -4 10 -5 0
-13 -4 -16 -10z"/>
</g>
</svg>
